# xmcd
#
# Track frame offsets: 
#        150
#        11390
#        23175
#        35255
#        46397
#        58005
#        70752
#        82622
#        94342
#        106770
#        121000
#        134892
#        144230
#        157970
#
# Disc length: 2250 seconds
#
# Revision: 0
# Processed by: cddbd v1.5.1PL0 Copyright (c) Steve Scherf et al.
# Submitted via: ExactAudioCopy v0.95a5
#
DISCID=a808c80e
DTITLE=Various Artist - Chicago Boogie
DYEAR=1900
DGENRE=Blues
TTITLE0=Othum Brown and Little Walter - I Just Keep Loving Her (Take 1)
TTITLE1=Othum Brown and Little Walter - I Just Keep Loving Her (Take 2)
TTITLE2=Othum Brown and Little Walter - Ora Nelle Blues (Take 1)
TTITLE3=Othum Brown and Little Walter - Ora Nelle Blues (Take 2)
TTITLE4=Johnny Young and Johnny Williams - Money Taking Woman (Take 1)
TTITLE5=Johnny Young and Johnny Williams - Money Taking Woman (Take 2)
TTITLE6=Johnny Williams and Johnny Young - Worried Man Blues
TTITLE7=Jimmy Rogers and Little Walter - Little Store Blues (Take 1)
TTITLE8=Jimmy Rogers and Little Walter - Little Store Blues (Take 2)
TTITLE9=Boll Weevil - Christmas Time Blues
TTITLE10=Boll Weevil - Thinkin' Blues
TTITLE11=Sleepy John Estes - Harlem Hound
TTITLE12=Sleepy John Estes - Stone Blind
TTITLE13=Johnny "Greechie" Temple - Olds "98" Blues
EXTD=
EXTT0=
EXTT1=
EXTT2=
EXTT3=
EXTT4=
EXTT5=
EXTT6=
EXTT7=
EXTT8=
EXTT9=
EXTT10=
EXTT11=
EXTT12=
EXTT13=
PLAYORDER=
